<?xml version="1.0" encoding="UTF-8"?>
<svg version="1.1" xmlns="http://www.w3.org/2000/svg" width="214" height="226">
<path d="M0 0 C70.62 0 141.24 0 214 0 C214 74.58 214 149.16 214 226 C143.38 226 72.76 226 0 226 C0 151.42 0 76.84 0 0 Z " fill="#FEFEFE" transform="translate(0,0)"/>
<path d="M0 0 C3.34252684 1.01545498 6.22872669 2.45608785 9.32666016 4.07397461 C10.27200623 4.56442764 10.27200623 4.56442764 11.2364502 5.06478882 C13.27753476 6.12563297 15.31384005 7.19530519 17.35009766 8.26538086 C18.75201743 8.99659478 20.15419967 9.72730572 21.55664062 10.45751953 C24.99454933 12.24945224 28.42859536 14.04863966 31.86132812 15.85046387 C34.51164291 17.24036893 37.16532869 18.62379261 39.81884766 20.00756836 C41.4962239 20.88461255 43.17333433 21.76216543 44.85009766 22.64038086 C45.59340332 23.02959717 46.33670898 23.41881348 47.10253906 23.81982422 C50.7110945 25.72209105 54.25098807 27.68528798 57.72509766 29.82788086 C57.39509766 31.14788086 57.06509766 32.46788086 56.72509766 33.82788086 C50.97509766 31.95288086 50.97509766 31.95288086 48.72509766 30.82788086 C48.75651855 32.0530542 48.75651855 32.0530542 48.78857422 33.30297852 C48.87194895 37.0194864 48.92382754 40.73579719 48.97509766 44.45288086 C49.00861328 45.73807617 49.04212891 47.02327148 49.07666016 48.34741211 C49.19993587 60.24351863 49.19993587 60.24351863 44.72509766 64.82788086 C41.30209777 68.01638871 38.58553522 68.28485898 33.97509766 68.51538086 C32.80462891 68.58112305 31.63416016 68.64686523 30.42822266 68.71459961 C29.53619141 68.75198242 28.64416016 68.78936523 27.72509766 68.82788086 C27.89827011 69.70769623 28.07144257 70.5875116 28.24986267 71.49398804 C29.88766471 79.81931112 31.52099259 88.14549709 33.14940548 96.47266197 C33.98657471 100.75284608 34.82541962 105.03268701 35.66821289 109.31176758 C36.48275144 113.44772684 37.29273293 117.58455559 38.09967232 121.72200394 C38.40703547 123.29381175 38.71598995 124.86530932 39.02662468 126.43647385 C40.62941832 134.54870324 42.09337335 142.56906703 42.72509766 150.82788086 C44.20888916 150.82002563 44.20888916 150.82002563 45.72265625 150.81201172 C49.38654682 150.79393563 53.05043343 150.78243928 56.71435547 150.77294922 C58.30127627 150.76791498 59.88819242 150.76108717 61.47509766 150.75244141 C63.75375515 150.74033604 66.03235142 150.73464353 68.31103516 150.73022461 C69.37830338 150.72248268 69.37830338 150.72248268 70.46713257 150.71458435 C75.49735424 150.71400915 75.49735424 150.71400915 77.72509766 151.82788086 C77.39509766 153.14788086 77.06509766 154.46788086 76.72509766 155.82788086 C56.81091895 155.85121539 36.89674301 155.86886277 16.98255348 155.87969303 C7.73657398 155.88485481 -1.50939704 155.89189526 -10.75537109 155.90332031 C-18.81180852 155.91327076 -26.86823981 155.91973515 -34.92468321 155.92196935 C-39.19261855 155.92327584 -43.46053632 155.92635784 -47.72846603 155.93361092 C-51.74207264 155.9403768 -55.75565436 155.94249665 -59.76926613 155.94098854 C-61.24552991 155.94126461 -62.72179449 155.94326638 -64.19805336 155.94708633 C-66.20733673 155.95203235 -68.21663332 155.95027635 -70.22592163 155.94813538 C-71.35235266 155.94905717 -72.47878368 155.94997896 -73.63934898 155.95092869 C-76.27490234 155.82788086 -76.27490234 155.82788086 -78.27490234 154.82788086 C-77.77990234 152.84788086 -77.77990234 152.84788086 -77.27490234 150.82788086 C-66.05490234 150.82788086 -54.83490234 150.82788086 -43.27490234 150.82788086 C-42.94490234 147.85788086 -42.61490234 144.88788086 -42.27490234 141.82788086 C-41.8747523 139.46888252 -41.44503045 137.11468293 -40.98388672 134.7668457 C-40.85855057 134.12328629 -40.73321442 133.47972687 -40.6040802 132.81666565 C-40.1956052 130.72338166 -39.78210919 128.63112347 -39.36865234 126.53881836 C-39.08064576 125.06636633 -38.79301407 123.59384093 -38.5057373 122.12124634 C-37.75298028 118.26664381 -36.99619789 114.41284407 -36.23822021 110.55926514 C-35.02446391 104.38623262 -33.81578194 98.21220906 -32.60920715 92.03776932 C-32.18936771 89.89328145 -31.76712233 87.7492777 -31.34460449 85.60531616 C-31.08496246 84.28026874 -30.82539633 82.95520644 -30.56591797 81.63012695 C-30.34021118 80.48256927 -30.11450439 79.3350116 -29.88195801 78.15267944 C-29.25531227 74.72058751 -28.74626409 71.28443078 -28.27490234 67.82788086 C-29.07154297 67.87428711 -29.86818359 67.92069336 -30.68896484 67.96850586 C-39.32192429 68.2625726 -39.32192429 68.2625726 -43.83740234 66.20288086 C-47.33692767 62.79308695 -49.08833778 59.55871854 -49.61547852 54.66821289 C-49.59976807 53.56848145 -49.58405762 52.46875 -49.56787109 51.33569336 C-49.55820312 50.13686523 -49.54853516 48.93803711 -49.53857422 47.70288086 C-49.5134375 46.46538086 -49.48830078 45.22788086 -49.46240234 43.95288086 C-49.44886719 42.69217773 -49.43533203 41.43147461 -49.42138672 40.13256836 C-49.3861367 37.03056631 -49.33685738 33.92944551 -49.27490234 30.82788086 C-50.05220703 31.32932617 -50.82951172 31.83077148 -51.63037109 32.34741211 C-54.27490234 33.82788086 -54.27490234 33.82788086 -56.58740234 33.51538086 C-57.14427734 33.28850586 -57.70115234 33.06163086 -58.27490234 32.82788086 C-58.19042969 31.06274414 -58.19042969 31.06274414 -57.27490234 28.82788086 C-55.06068086 27.38154028 -52.98899477 26.21996413 -50.62646484 25.07006836 C-49.94600098 24.72505783 -49.26553711 24.3800473 -48.56445312 24.02458191 C-46.34907614 22.9046476 -44.12470432 21.80395424 -41.89990234 20.70288086 C-40.38531572 19.94061995 -38.87148064 19.17686391 -37.35839844 18.41162109 C-34.36971865 16.90122147 -31.37822785 15.39665135 -28.38427734 13.89672852 C-23.19049986 11.28923352 -18.03839822 8.60499894 -12.89990234 5.89038086 C-12.14789551 5.49641113 -11.39588867 5.10244141 -10.62109375 4.6965332 C-1.49017998 -0.11274704 -1.49017998 -0.11274704 0 0 Z " fill="#C7CCD4" transform="translate(107.27490234375,30.172119140625)"/>
<path d="M0 0 C0.75888519 0.38958389 1.51777039 0.77916779 2.2996521 1.18055725 C3.89583189 2.00133736 5.49091785 2.82424778 7.08496094 3.64916992 C9.51972172 4.90823474 11.9587774 6.15866304 14.3984375 7.40820312 C15.95338896 8.20912315 17.50808533 9.01053867 19.0625 9.8125 C19.78861481 10.18447006 20.51472961 10.55644012 21.2628479 10.93968201 C23.15768177 11.92371964 25.03053586 12.93864535 26.8984375 13.97265625 C27.70909668 14.4104541 28.51975586 14.84825195 29.35498047 15.29931641 C31.80408575 17.95451533 31.41699482 20.3683923 31.4296875 23.90625 C31.43542786 24.91776878 31.43542786 24.91776878 31.44128418 25.94972229 C31.44400316 27.37445571 31.4366426 28.79923906 31.41992188 30.22387695 C31.39853987 32.39973937 31.41970085 34.57228821 31.4453125 36.74804688 C31.44266856 38.13412185 31.4375422 39.52019476 31.4296875 40.90625 C31.42517578 42.16493896 31.42066406 43.42362793 31.41601562 44.72045898 C30.78669351 48.67479855 30.08043153 49.60035324 26.8984375 51.97265625 C24.17873937 52.36235061 21.86509268 52.51039838 19.14819336 52.47436523 C18.37214249 52.47976822 17.59609161 52.4851712 16.79652405 52.49073792 C14.23505347 52.50323073 11.67470557 52.48673284 9.11328125 52.46875 C7.33256471 52.46890496 5.55184782 52.47039344 3.77113342 52.47315979 C0.04119945 52.47454397 -3.68835007 52.46198142 -7.41821289 52.43920898 C-12.20243967 52.41080356 -16.98602864 52.41356694 -21.77030277 52.4262991 C-25.44629885 52.43324871 -29.12214711 52.42547558 -32.79812431 52.41304207 C-34.56239696 52.40852203 -36.32668545 52.40819559 -38.09095955 52.41210747 C-40.55454259 52.41501322 -43.01724149 52.39854478 -45.48071289 52.37670898 C-46.21170197 52.38121063 -46.94269104 52.38571228 -47.6958313 52.39035034 C-52.63015488 52.31756638 -52.63015488 52.31756638 -55.0153656 50.57240295 C-57.4124144 47.0420385 -57.217084 44.46677356 -57.19921875 40.21484375 C-57.1978038 39.5517923 -57.19638885 38.88874084 -57.19493103 38.20559692 C-57.18933004 36.08623762 -57.1767775 33.96698366 -57.1640625 31.84765625 C-57.15904762 30.41145986 -57.15448469 28.97526181 -57.15039062 27.5390625 C-57.13936032 24.0168928 -57.12209509 20.4947848 -57.1015625 16.97265625 C-50.82209674 13.520632 -44.52923262 10.09414587 -38.22900391 6.68017578 C-35.19935888 5.02605109 -32.18687358 3.34385167 -29.17578125 1.65625 C-27.3181212 0.63596668 -25.46006385 -0.3835937 -23.6015625 -1.40234375 C-22.73700439 -1.89645752 -21.87244629 -2.39057129 -20.98168945 -2.8996582 C-20.16531006 -3.34140381 -19.34893066 -3.78314941 -18.5078125 -4.23828125 C-17.79947266 -4.63321777 -17.09113281 -5.0281543 -16.36132812 -5.43505859 C-10.86677152 -6.8751833 -4.80657723 -2.48956687 0 0 Z " fill="#FDFDFD" transform="translate(120.1015625,41.02734375)"/>
<path d="M0 0 C1.22673935 -0.00990463 2.4534787 -0.01980927 3.71739197 -0.03001404 C5.07392983 -0.02577605 6.43046673 -0.02121819 7.78700256 -0.01637268 C9.21789076 -0.02207592 10.64877441 -0.02904001 12.07965088 -0.03717041 C15.96398891 -0.05512252 19.8481013 -0.0539296 23.73246837 -0.04822803 C26.97556772 -0.04513902 30.21862355 -0.05122543 33.46171671 -0.05726677 C41.11282534 -0.07131721 48.76382232 -0.06974651 56.41493225 -0.05836487 C64.30735372 -0.04688367 72.19943539 -0.06095799 80.09181207 -0.08776134 C86.86900919 -0.10991541 93.64609961 -0.11655638 100.42333037 -0.11068493 C104.470606 -0.10731335 108.51766381 -0.10974356 112.56490898 -0.12693596 C116.37108957 -0.14239844 120.17676668 -0.13845783 123.98292732 -0.11963081 C125.37891671 -0.11594289 126.77494334 -0.11905943 128.17089844 -0.1295166 C130.07816818 -0.14271202 131.98556788 -0.1287798 133.89282227 -0.11352539 C135.49309721 -0.11321146 135.49309721 -0.11321146 137.12570095 -0.1128912 C140.68795338 0.50535994 142.39447044 1.95627883 145.00990295 4.38768005 C145.00990295 6.57518005 145.00990295 6.57518005 144.00990295 9.38768005 C134.67402591 17.19933227 121.14161131 18.35779654 109.44740295 20.07518005 C108.63440735 20.19457947 107.82141174 20.31397888 106.98377991 20.43699646 C93.89977426 22.21865927 80.75827355 22.59709687 67.57240295 22.57518005 C66.46664413 22.57377518 66.46664413 22.57377518 65.33854675 22.57234192 C47.51942222 22.52366561 30.17414992 21.4023699 12.63490295 18.07518005 C11.61839661 17.88673523 10.60189026 17.69829041 9.55458069 17.50413513 C2.22501107 15.9980925 -5.56614429 13.81163281 -10.99009705 8.38768005 C-10.83534074 5.36993214 -10.49663362 3.880838 -8.30979061 1.75175381 C-5.35868828 0.01638613 -3.41598365 0.00778312 0 0 Z " fill="#F3F4F7" transform="translate(39.99009704589844,185.61231994628906)"/>
<path d="M0 0 C5.20968219 1.11636047 9.05404648 5.13756554 13 8.5 C14.51155328 9.76867764 16.02459026 11.03558952 17.5390625 12.30078125 C18.28833008 12.92678223 19.03759766 13.5527832 19.80957031 14.19775391 C23.9338896 17.59116953 28.19538938 20.79905909 32.4609375 24.01171875 C33.29882812 24.66785156 34.13671875 25.32398438 35 26 C35.88558594 26.62841797 35.88558594 26.62841797 36.7890625 27.26953125 C38 29 38 29 39 37 C13.59 37 -11.82 37 -38 37 C-35.75097853 26.87940336 -35.75097853 26.87940336 -32.6484375 24.734375 C-31.9692627 24.24300049 -31.29008789 23.75162598 -30.59033203 23.24536133 C-29.85927246 22.75189209 -29.12821289 22.25842285 -28.375 21.75 C-26.83663777 20.64718224 -25.30022974 19.5416342 -23.765625 18.43359375 C-22.97865234 17.87397949 -22.19167969 17.31436523 -21.38085938 16.73779297 C-17.50790777 13.91091955 -13.82072 10.86529998 -10.125 7.8125 C-8.81604332 6.73453567 -7.50621608 5.65762713 -6.1953125 4.58203125 C-5.64891113 4.13061768 -5.10250977 3.6792041 -4.53955078 3.21411133 C-3.08371818 2.06602133 -1.54267582 1.02845055 0 0 Z " fill="#FEFEFE" transform="translate(106,144)"/>
<path d="M0 0 C14.85 0 29.7 0 45 0 C46.26097907 3.7829372 47.37590827 7.21201594 48.1875 11.0625 C48.36667969 11.87847656 48.54585937 12.69445312 48.73046875 13.53515625 C49.0503546 16.46048919 49.02756696 18.22208594 48 21 C46.04337099 22.80907026 44.22141114 24.29147659 42.0625 25.8125 C40.87522933 26.6782182 39.68904324 27.54542566 38.50390625 28.4140625 C37.9123877 28.84364258 37.32086914 29.27322266 36.71142578 29.71582031 C33.4034587 32.19797535 30.31931263 34.96498972 27.21875 37.69921875 C25 39 25 39 22.640625 39.02734375 C18.99947257 37.61074155 16.22506566 35.34209789 13.25 32.875 C12.01533934 31.8620411 10.77966081 30.85032158 9.54296875 29.83984375 C8.94274902 29.3485498 8.3425293 28.85725586 7.72412109 28.35107422 C5.43656906 26.55847822 2.99286319 25.02849129 0.5625 23.4375 C-1.86794431 21.54715442 -2.87068448 20.76037523 -3.390625 17.703125 C-3.1731323 15.00956159 -2.65705493 12.62470606 -2 10 C-1.34 6.7 -0.68 3.4 0 0 Z " fill="#FDFDFE" transform="translate(84,98)"/>
<path d="M0 0 C1.11785889 -0.00315216 2.23571777 -0.00630432 3.38745117 -0.009552 C5.21240112 -0.00651566 5.21240112 -0.00651566 7.07421875 -0.00341797 C8.31341064 -0.00437469 9.55260254 -0.00533142 10.8293457 -0.00631714 C13.45560156 -0.00699921 16.08176508 -0.00564085 18.70800781 -0.00097656 C22.08100589 0.00472073 25.4539244 0.00144151 28.82691956 -0.00454903 C32.03435552 -0.00902317 35.24178175 -0.00589429 38.44921875 -0.00341797 C39.66585205 -0.0054422 40.88248535 -0.00746643 42.13598633 -0.009552 C43.81277466 -0.00482376 43.81277466 -0.00482376 45.5234375 0 C46.51303467 0.00079559 47.50263184 0.00159119 48.5222168 0.00241089 C50.76171875 0.12939453 50.76171875 0.12939453 51.76171875 1.12939453 C51.83430821 3.31578906 51.84545658 5.50439842 51.82421875 7.69189453 C51.81519531 8.88943359 51.80617187 10.08697266 51.796875 11.32080078 C51.78527344 12.24763672 51.77367187 13.17447266 51.76171875 14.12939453 C49.1970476 15.41173011 47.37303153 15.25643306 44.50170898 15.25878906 C43.40394638 15.26194122 42.30618378 15.26509338 41.17515564 15.26834106 C39.39075829 15.26530472 39.39075829 15.26530472 37.5703125 15.26220703 C36.3547316 15.26316376 35.1391507 15.26412048 33.88673401 15.2651062 C31.31356759 15.26578765 28.74039946 15.26393581 26.16723633 15.25976562 C22.21236339 15.25441232 18.25760378 15.25971421 14.30273438 15.26611328 C11.8085935 15.26545258 9.31445269 15.2641716 6.8203125 15.26220703 C5.0328788 15.26524338 5.0328788 15.26524338 3.20933533 15.26834106 C1.56741966 15.26361282 1.56741966 15.26361282 -0.10766602 15.25878906 C-1.56089012 15.25759567 -1.56089012 15.25759567 -3.04347229 15.25637817 C-5.23828125 15.12939453 -5.23828125 15.12939453 -6.23828125 14.12939453 C-6.33721065 11.96458657 -6.36799225 9.79645668 -6.36328125 7.62939453 C-6.36585937 6.44345703 -6.3684375 5.25751953 -6.37109375 4.03564453 C-6.14865791 -0.83177502 -4.39255054 0.00353142 0 0 Z " fill="#FDFEFE" transform="translate(84.23828125,63.87060546875)"/>
<path d="M0 0 C1.24482651 -0.00619858 2.48965302 -0.01239716 3.77220154 -0.01878357 C7.06996106 -0.02768753 10.36697302 -0.01659636 13.66467285 0.00030518 C15.68361014 0.00390628 17.70163095 -0.01004203 19.72045898 -0.03051758 C23.60574313 -0.06734379 27.4895751 -0.07003413 31.375 -0.0625 C33.178265 -0.08238731 33.178265 -0.08238731 35.01795959 -0.10267639 C44.2845789 0.00088659 44.2845789 0.00088659 47.3828125 2.89257812 C49.62619367 6.34335208 49.69419487 8.53900163 49.55859375 12.62890625 C49.52572266 14.44068359 49.52572266 14.44068359 49.4921875 16.2890625 C49.15177089 19.29547864 48.79461001 21.08293195 47.12109375 23.56640625 C44.46507412 24.89441607 42.42405184 24.71550615 39.44970703 24.7434082 C38.26152374 24.75624344 37.07334045 24.76907867 35.84915161 24.78230286 C34.55959564 24.78968979 33.27003967 24.79707672 31.94140625 24.8046875 C30.62196014 24.81275925 29.30251404 24.82083099 27.94308472 24.82914734 C25.14711637 24.84417313 22.35117343 24.85401205 19.55517578 24.86157227 C15.97486393 24.87264079 12.39517292 24.90704592 8.81508064 24.94674397 C6.06125739 24.97289137 3.30758256 24.98126231 0.55364609 24.98485374 C-1.40734959 24.99209065 -3.36824387 25.01853664 -5.32907104 25.04524231 C-6.52355865 25.04231674 -7.71804626 25.03939117 -8.94873047 25.03637695 C-9.99970917 25.04224319 -11.05068787 25.04810944 -12.1335144 25.05415344 C-15.60591115 24.43724633 -16.7725168 23.35266864 -18.87890625 20.56640625 C-19.33437037 17.7271494 -19.52954363 15.39677276 -19.50390625 12.56640625 C-19.53613281 11.85484375 -19.56835938 11.14328125 -19.6015625 10.41015625 C-19.60546875 8.31640625 -19.60546875 8.31640625 -18.87890625 4.56640625 C-13.4771189 -0.7353153 -7.20604418 -0.02978042 0 0 Z M-13.87890625 6.56640625 C-13.97783565 8.73121422 -14.00861725 10.8993441 -14.00390625 13.06640625 C-14.00648437 14.25234375 -14.0090625 15.43828125 -14.01171875 16.66015625 C-14.21100844 19.45900047 -14.21100844 19.45900047 -12.87890625 20.56640625 C-11.17101344 20.6652187 -9.45903932 20.69439591 -7.74829102 20.69580078 C-6.10637535 20.70052902 -6.10637535 20.70052902 -4.43128967 20.70535278 C-3.23966721 20.70332855 -2.04804474 20.70130432 -0.8203125 20.69921875 C0.39431168 20.70017548 1.60893585 20.7011322 2.86036682 20.70211792 C5.43531343 20.70280002 8.01026175 20.70094366 10.58520508 20.69677734 C14.53796233 20.69143414 18.49060571 20.69671899 22.44335938 20.703125 C24.93880234 20.70246413 27.43424522 20.70118279 29.9296875 20.69921875 C31.71408485 20.7022551 31.71408485 20.7022551 33.53453064 20.70535278 C34.63229324 20.70220062 35.73005585 20.69904846 36.86108398 20.69580078 C37.83069565 20.69500519 38.80030731 20.69420959 39.79930115 20.69338989 C42.14658594 20.71936897 42.14658594 20.71936897 44.12109375 19.56640625 C44.14795313 17.42063988 44.16742463 15.2747798 44.18359375 13.12890625 C44.19519531 11.93394531 44.20679688 10.73898438 44.21875 9.5078125 C44.46011167 6.67767284 44.46011167 6.67767284 43.12109375 5.56640625 C41.3772684 5.46752833 39.62943832 5.43841593 37.8828125 5.43701172 C36.20602417 5.43228348 36.20602417 5.43228348 34.49536133 5.42745972 C32.67041138 5.43049606 32.67041138 5.43049606 30.80859375 5.43359375 C29.56940186 5.43263702 28.33020996 5.4316803 27.0534668 5.43069458 C24.42721094 5.43001251 21.80104742 5.43137087 19.17480469 5.43603516 C15.80180661 5.44173244 12.4288881 5.43845323 9.05589294 5.43246269 C5.84845698 5.42798855 2.64103075 5.43111743 -0.56640625 5.43359375 C-2.3913562 5.4305574 -2.3913562 5.4305574 -4.25317383 5.42745972 C-5.37103271 5.43061188 -6.4888916 5.43376404 -7.640625 5.43701172 C-9.12502075 5.43820511 -9.12502075 5.43820511 -10.6394043 5.43942261 C-12.84987875 5.31539777 -12.84987875 5.31539777 -13.87890625 6.56640625 Z " fill="#C7CCD5" transform="translate(91.87890625,58.43359375)"/>
<path d="M0 0 C0.66 0.33 1.32 0.66 2 1 C2.67870245 3.61820617 3.23410869 6.17740342 3.7265625 8.83203125 C3.87910492 9.62018723 4.03164734 10.4083432 4.18881226 11.22038269 C4.51050272 12.89166306 4.82797916 14.56375913 5.14160156 16.23657227 C5.62135825 18.7930939 6.11419612 21.34681627 6.609375 23.90039062 C6.92004874 25.52328878 7.22996915 27.14633136 7.5390625 28.76953125 C7.68590485 29.53320511 7.83274719 30.29687897 7.98403931 31.08369446 C8.61601378 34.47410066 9 37.53646162 9 41 C4.44686957 39.51065827 1.09781818 36.92623291 -2.5625 33.9375 C-3.7946558 32.94937613 -5.02774711 31.96241781 -6.26171875 30.9765625 C-6.88095215 30.4805957 -7.50018555 29.98462891 -8.13818359 29.47363281 C-11.01077271 27.19997062 -13.93758499 25.00141551 -16.875 22.8125 C-17.86242187 22.07644531 -18.84984375 21.34039062 -19.8671875 20.58203125 C-20.57101563 20.05996094 -21.27484375 19.53789062 -22 19 C-20.46425651 14.76447816 -17.3117603 12.63780657 -13.8125 10.0625 C-12.93718628 9.40435303 -12.93718628 9.40435303 -12.04418945 8.73291016 C-8.07456178 5.75886444 -4.06799572 2.83813655 0 0 Z " fill="#FDFDFD" transform="translate(133,123)"/>
<path d="M0 0 C6.14852343 3.07426171 11.13819758 7.3172419 16.328125 11.7578125 C18.97661483 14.06382128 18.97661483 14.06382128 22 16 C21.16004493 20.85235585 17.98818457 22.77887176 14.25 25.625 C13.58274902 26.14481445 12.91549805 26.66462891 12.22802734 27.20019531 C10.8446154 28.27563691 9.4576825 29.34656354 8.06738281 30.41308594 C6.08589318 31.93406877 4.11567288 33.46845846 2.1484375 35.0078125 C0.97444916 35.92250531 -0.2000071 36.83659798 -1.375 37.75 C-1.92768555 38.18006348 -2.48037109 38.61012695 -3.04980469 39.05322266 C-6.88219887 42 -6.88219887 42 -8 42 C-7.43474574 33.90248913 -5.98036354 26.00646554 -4.41601562 18.0559082 C-3.99489621 15.91151081 -3.58297443 13.76547907 -3.171875 11.61914062 C-2.90678799 10.25510367 -2.64118266 8.89116732 -2.375 7.52734375 C-2.01535156 5.68257446 -2.01535156 5.68257446 -1.6484375 3.80053711 C-1 1 -1 1 0 0 Z " fill="#FCFCFD" transform="translate(80,123)"/>
<path d="M0 0 C0.33 0.99 0.66 1.98 1 3 C2.02794678 2.76966064 2.02794678 2.76966064 3.07666016 2.53466797 C14.35710863 0.47151596 26.19315916 0.83489622 37.625 0.875 C38.35869812 0.87588623 39.09239624 0.87677246 39.84832764 0.87768555 C51.92052541 0.89473806 63.95046685 1.22439787 76 2 C76 3.32 76 4.64 76 6 C50.59 6 25.18 6 -1 6 C-0.67 4.02 -0.34 2.04 0 0 Z " fill="#F3F4F6" transform="translate(69,175)"/>
</svg>
